<svg xmlns="http://www.w3.org/2000/svg" viewBox="0 0 1438 319">
  <defs>
    <linearGradient id="grad1" x1="0%" y1="0%" x2="100%" y2="0%">
      <stop offset="0%" style="stop-color:#8739f9;stop-opacity:1" />
      <stop offset="100%" style="stop-color:#e600ff;stop-opacity:1" />
    </linearGradient>
  </defs>
<path fill="url(#grad1)" fill-opacity="1" 
d="M0,288L48,261.3C96,235,192,181,288,138.7C384,96,480,64,576,96C672,128,
768,224,864,218.7C960,213,1056,107,1152,64C1248,21,1344,43,1392,53.3L1440,64L1440,
320L1392,320C1344,320,1248,320,1152,320C1056,320,960,320,864,320C768,320,672,320,576,320C480,
320,384,320,288,320C192,320,96,320,48,320L0,320Z"></path></svg>           
