<?xml version="1.0" standalone="no"?><svg xmlns="http://www.w3.org/2000/svg" viewBox="0 0 1440 320">
<defs>
    <linearGradient id="grad1" x1="0%" y1="0%" x2="100%" y2="0%">
      <stop offset="0%" style="stop-color:#8739f9;stop-opacity:1" />
      <stop offset="100%" style="stop-color:#e600ff;stop-opacity:1" />
    </linearGradient>
  </defs>
<path fill="url(#grad1)" fill-opacity="1" d="M0,64L24,101.3C48,139,96,213,144,224C192,235,240,181,288,133.3C336,85,384,43,432,37.3C480,32,528,64,576,101.3C624,139,672,181,720,213.3C768,245,816,267,864,245.3C912,224,960,160,1008,154.7C1056,149,1104,203,1152,192C1200,181,1248,107,1296,101.3C1344,96,1392,160,1416,192L1440,224L1440,0L1416,0C1392,0,1344,0,1296,0C1248,0,1200,0,1152,0C1104,0,1056,0,1008,0C960,0,912,0,864,0C816,0,768,0,720,0C672,0,624,0,576,0C528,0,480,0,432,0C384,0,336,0,288,0C240,0,192,0,144,0C96,0,48,0,24,0L0,0Z"></path></svg>