<svg height="100%" width="100%" id="bg-svg" viewBox="0 0 1440 600" xmlns="http://www.w3.org/2000/svg" class="transition duration-300 ease-in-out delay-150"><defs><linearGradient id="gradient"><stop offset="5%" stop-color="#002bdc88"></stop><stop offset="95%" stop-color="#32ded488"></stop></linearGradient></defs><path d="M 0,600 C 0,600 0,200 0,200 C 96.48803827751195,167.39712918660288 192.9760765550239,134.79425837320576 287,138 C 381.0239234449761,141.20574162679424 472.58373205741634,180.22009569377988 567,211 C 661.4162679425837,241.77990430622012 758.6889952153111,264.32535885167465 857,261 C 955.3110047846889,257.67464114832535 1054.6602870813397,228.47846889952152 1152,214 C 1249.3397129186603,199.52153110047848 1344.6698564593303,199.76076555023923 1440,200 C 1440,200 1440,600 1440,600 Z" stroke="none" stroke-width="0" fill="url(#gradient)" class="transition-all duration-300 ease-in-out delay-150"></path><defs><linearGradient id="gradient"><stop offset="5%" stop-color="#002bdcff"></stop><stop offset="95%" stop-color="#32ded4ff"></stop></linearGradient></defs><path d="M 0,600 C 0,600 0,400 0,400 C 101.65550239234452,428.2392344497608 203.31100478468903,456.47846889952154 293,459 C 382.68899521531097,461.52153110047846 460.4114832535885,438.3253588516746 549,439 C 637.5885167464115,439.6746411483254 737.0430622009571,464.2200956937799 842,462 C 946.9569377990429,459.7799043062201 1057.4162679425838,430.79425837320576 1158,416 C 1258.5837320574162,401.20574162679424 1349.2918660287082,400.6028708133971 1440,400 C 1440,400 1440,600 1440,600 Z" stroke="none" stroke-width="0" fill="url(#gradient)" class="transition-all duration-300 ease-in-out delay-150"></path></svg>